<?xml version="1.0" encoding="UTF-8"?>
<svg xmlns="http://www.w3.org/2000/svg" xmlns:xlink="http://www.w3.org/1999/xlink" width="25pt" height="25pt" viewBox="0 0 25 25" version="1.1">
<g id="surface1">
<path style=" stroke:none;fill-rule:nonzero;fill:#004078;fill-opacity:1;" d="M 22.0625 1.183594 L 2.609375 1.183594 C 1.167969 1.183594 0 2.359375 0 3.796875 L 0 16.132812 C 0 17.570312 1.167969 18.742188 2.609375 18.742188 L 8.910156 18.742188 L 8.148438 22.535156 L 5.691406 22.535156 C 5.433594 22.535156 5.21875 22.75 5.21875 23.011719 C 5.21875 23.273438 5.433594 23.484375 5.691406 23.484375 L 18.980469 23.484375 C 19.238281 23.484375 19.449219 23.273438 19.449219 23.011719 C 19.449219 22.75 19.238281 22.535156 18.980469 22.535156 L 16.519531 22.535156 L 15.761719 18.742188 L 22.0625 18.742188 C 23.5 18.742188 24.671875 17.570312 24.671875 16.132812 L 24.671875 3.796875 C 24.671875 2.359375 23.5 1.183594 22.0625 1.183594 Z M 9.121094 22.535156 L 9.878906 18.742188 L 14.792969 18.742188 L 15.550781 22.535156 Z M 23.722656 16.132812 C 23.722656 17.046875 22.976562 17.789062 22.0625 17.789062 L 2.609375 17.789062 C 1.691406 17.789062 0.949219 17.046875 0.949219 16.132812 L 0.949219 14.945312 L 23.722656 14.945312 Z M 23.722656 13.996094 L 0.949219 13.996094 L 0.949219 13.046875 L 3.796875 13.046875 C 4.058594 13.046875 4.269531 12.832031 4.269531 12.574219 C 4.269531 12.308594 4.058594 12.097656 3.796875 12.097656 L 0.949219 12.097656 L 0.949219 3.796875 C 0.949219 2.882812 1.691406 2.136719 2.609375 2.136719 L 22.0625 2.136719 C 22.976562 2.136719 23.722656 2.878906 23.722656 3.796875 Z M 23.722656 13.996094 "/>
<path style=" stroke:none;fill-rule:nonzero;fill:#004078;fill-opacity:1;" d="M 12.335938 15.417969 C 11.8125 15.417969 11.386719 15.847656 11.386719 16.367188 C 11.386719 16.890625 11.8125 17.316406 12.335938 17.316406 C 12.859375 17.316406 13.28125 16.890625 13.28125 16.367188 C 13.28125 15.847656 12.859375 15.417969 12.335938 15.417969 Z M 12.335938 15.417969 "/>
<path style=" stroke:none;fill-rule:nonzero;fill:#004078;fill-opacity:1;" d="M 16.21875 10.273438 L 15.214844 9.265625 L 16.050781 8.425781 C 16.175781 8.304688 16.21875 8.128906 16.171875 7.960938 C 16.125 7.796875 15.992188 7.667969 15.824219 7.628906 L 11.460938 6.625 C 11.300781 6.585938 11.132812 6.632812 11.019531 6.75 C 10.902344 6.863281 10.859375 7.03125 10.894531 7.191406 L 11.898438 11.554688 C 11.9375 11.722656 12.066406 11.855469 12.230469 11.902344 C 12.398438 11.949219 12.578125 11.90625 12.699219 11.78125 L 13.535156 10.945312 L 14.542969 11.949219 C 14.636719 12.042969 14.757812 12.089844 14.875 12.089844 C 15 12.089844 15.121094 12.042969 15.214844 11.949219 L 16.21875 10.945312 C 16.40625 10.757812 16.40625 10.457031 16.21875 10.273438 Z M 14.875 10.945312 L 13.871094 9.9375 C 13.777344 9.84375 13.65625 9.796875 13.535156 9.796875 C 13.414062 9.796875 13.292969 9.84375 13.199219 9.9375 L 12.632812 10.503906 L 11.988281 7.71875 L 14.777344 8.363281 L 14.207031 8.929688 C 14.023438 9.117188 14.023438 9.414062 14.207031 9.601562 L 15.214844 10.605469 Z M 14.875 10.945312 "/>
<path style=" stroke:none;fill-rule:nonzero;fill:#004078;fill-opacity:1;" d="M 10.382812 5.441406 L 9.90625 4.964844 C 9.722656 4.785156 9.421875 4.785156 9.238281 4.964844 C 9.050781 5.152344 9.050781 5.453125 9.238281 5.636719 L 9.710938 6.113281 C 9.804688 6.207031 9.925781 6.25 10.046875 6.25 C 10.167969 6.25 10.289062 6.207031 10.382812 6.113281 C 10.570312 5.925781 10.570312 5.628906 10.382812 5.441406 Z M 10.382812 5.441406 "/>
<path style=" stroke:none;fill-rule:nonzero;fill:#004078;fill-opacity:1;" d="M 9.457031 6.726562 L 8.785156 6.726562 C 8.527344 6.726562 8.3125 6.9375 8.3125 7.199219 C 8.3125 7.460938 8.527344 7.675781 8.785156 7.675781 L 9.457031 7.675781 C 9.71875 7.675781 9.933594 7.460938 9.933594 7.199219 C 9.933594 6.9375 9.71875 6.726562 9.457031 6.726562 Z M 9.457031 6.726562 "/>
<path style=" stroke:none;fill-rule:nonzero;fill:#004078;fill-opacity:1;" d="M 10.382812 8.289062 C 10.195312 8.101562 9.898438 8.101562 9.710938 8.289062 L 9.238281 8.761719 C 9.050781 8.945312 9.050781 9.25 9.238281 9.433594 C 9.328125 9.527344 9.449219 9.574219 9.574219 9.574219 C 9.695312 9.574219 9.816406 9.527344 9.90625 9.433594 L 10.382812 8.960938 C 10.570312 8.773438 10.570312 8.472656 10.382812 8.289062 Z M 10.382812 8.289062 "/>
<path style=" stroke:none;fill-rule:nonzero;fill:#004078;fill-opacity:1;" d="M 13.703125 4.964844 C 13.519531 4.785156 13.21875 4.785156 13.03125 4.964844 L 12.558594 5.441406 C 12.375 5.628906 12.375 5.925781 12.558594 6.113281 C 12.648438 6.207031 12.773438 6.25 12.894531 6.25 C 13.015625 6.25 13.136719 6.207031 13.230469 6.113281 L 13.703125 5.636719 C 13.890625 5.453125 13.890625 5.152344 13.703125 4.964844 Z M 13.703125 4.964844 "/>
<path style=" stroke:none;fill-rule:nonzero;fill:#004078;fill-opacity:1;" d="M 11.472656 4.042969 C 11.207031 4.042969 10.996094 4.253906 10.996094 4.515625 L 10.996094 5.1875 C 10.996094 5.449219 11.207031 5.664062 11.472656 5.664062 C 11.730469 5.664062 11.945312 5.449219 11.945312 5.1875 L 11.945312 4.515625 C 11.945312 4.253906 11.730469 4.042969 11.472656 4.042969 Z M 11.472656 4.042969 "/>
<path style=" stroke:none;fill-rule:nonzero;fill:#004078;fill-opacity:1;" d="M 5.683594 12.480469 C 5.679688 12.453125 5.667969 12.417969 5.65625 12.390625 C 5.644531 12.359375 5.632812 12.335938 5.613281 12.308594 C 5.597656 12.285156 5.578125 12.257812 5.554688 12.234375 C 5.53125 12.214844 5.507812 12.195312 5.484375 12.179688 C 5.457031 12.160156 5.429688 12.144531 5.398438 12.136719 C 5.371094 12.125 5.34375 12.113281 5.308594 12.109375 C 5.25 12.09375 5.1875 12.09375 5.125 12.109375 C 5.09375 12.113281 5.066406 12.125 5.035156 12.136719 C 5.007812 12.144531 4.980469 12.160156 4.957031 12.179688 C 4.929688 12.195312 4.90625 12.214844 4.882812 12.234375 C 4.859375 12.257812 4.839844 12.285156 4.824219 12.308594 C 4.808594 12.335938 4.792969 12.359375 4.78125 12.390625 C 4.769531 12.417969 4.761719 12.453125 4.753906 12.480469 C 4.746094 12.507812 4.746094 12.542969 4.746094 12.574219 C 4.746094 12.601562 4.746094 12.632812 4.753906 12.667969 C 4.761719 12.695312 4.769531 12.722656 4.78125 12.753906 C 4.792969 12.78125 4.808594 12.8125 4.824219 12.835938 C 4.839844 12.863281 4.859375 12.886719 4.882812 12.90625 C 4.90625 12.929688 4.929688 12.949219 4.957031 12.96875 C 4.980469 12.984375 5.007812 12.996094 5.035156 13.011719 C 5.066406 13.023438 5.09375 13.03125 5.125 13.039062 C 5.15625 13.046875 5.1875 13.046875 5.21875 13.046875 C 5.25 13.046875 5.28125 13.046875 5.308594 13.039062 C 5.34375 13.03125 5.371094 13.023438 5.398438 13.011719 C 5.429688 12.996094 5.457031 12.984375 5.484375 12.96875 C 5.507812 12.949219 5.53125 12.929688 5.554688 12.90625 C 5.578125 12.886719 5.597656 12.863281 5.613281 12.835938 C 5.632812 12.8125 5.644531 12.78125 5.65625 12.753906 C 5.667969 12.722656 5.679688 12.695312 5.683594 12.667969 C 5.6875 12.632812 5.691406 12.601562 5.691406 12.574219 C 5.691406 12.542969 5.6875 12.507812 5.683594 12.480469 Z M 5.683594 12.480469 "/>
</g>
</svg>
